PathFileType	4	(X/Y/Z)	15_1_4_p0_0-457_filt_butterworth.trc
DataRate	CameraRate	NumFrames	NumMarkers	Units	OrigDataRate	OrigDataStartFrame	OrigNumFrames
55.0	55.0	6	27	m	55.0	399	457
Frame#	Time	RHip			RKnee			RAnkle			RBigToe			RSmallToe			RHeel			LHip			LKnee			LAnkle			LBigToe			LSmallToe			LHeel			Neck			Head			Nose			RShoulder			RElbow			RWrist			RThumb			RIndex			RPinky			LShoulder			LElbow			LWrist			LThumb			LIndex			LPinky			
		X1	Y1	Z1	X2	Y2	Z2	X3	Y3	Z3	X4	Y4	Z4	X5	Y5	Z5	X6	Y6	Z6	X7	Y7	Z7	X8	Y8	Z8	X9	Y9	Z9	X10	Y10	Z10	X11	Y11	Z11	X12	Y12	Z12	X13	Y13	Z13	X14	Y14	Z14	X15	Y15	Z15	X16	Y16	Z16	X17	Y17	Z17	X18	Y18	Z18	X19	Y19	Z19	X20	Y20	Z20	X21	Y21	Z21	X22	Y22	Z22	X23	Y23	Z23	X24	Y24	Z24	X25	Y25	Z25	X26	Y26	Z26	X27	Y27	Z27	
399	7.254545454545455	0.24939243571392264	0.9717219749487584	0.16896025650484026	0.25770855613020127	0.5410634300202392	0.17270658548609436	0.2763974386514711	0.13226513352014702	0.22210249233160656	0.25723269642363916	0.11060947976444546	0.04267411768241204	0.3232207595364561	0.1043857187557085	0.06989664592299806	0.25216015880116094	0.07463154659913157	0.2838525642801206	0.005306233982663719	0.957007230502939	0.1769647669098434	0.03791327629564238	0.5216042862114458	0.19645327900069626	0.0498571897347735	0.14390821761928313	0.21806612890592497	0.06720401432538611	0.11206771156570791	0.02693985326793901	0.016512796820150662	0.09766800711029001	0.07045093598706169	0.064209785685294	0.10044303842229296	0.26146124153447714	0.09525707687294038	1.5483243393809363	0.22727599836729034	0.08534221734444225	1.7828702229934683	0.17847602677090738	0.07537245990881446	1.6626634935666051	0.118491334411681	0.24915646854872947	1.5029530205821562	0.20657300081032443	0.4843448098839309	1.495731225484678	0.2832475344772241	0.4597301822706748	1.682544943180622	0.2832134638985415	0.38499779728363714	1.7327145157069683	0.30731964033253517	0.407994712670527	1.7375798592213985	0.30487420621921113	0.45695756061660564	1.7366024443591463	0.2927526533165387	-0.0649263839785077	1.4830648104075923	0.2003942625889298	-0.2809217348915921	1.4371344389101295	0.29504954230319697	-0.2822896396548252	1.6198565246602392	0.26773977689396566	-0.2277496962453091	1.6878870710512475	0.2763328064871854	-0.24644050150136615	1.6984821901328486	0.28763061760986774	-0.29269753609111254	1.6811934655471081	0.3004932776509996	
400	7.272727272727272	0.24946810490086746	0.9720152794680706	0.16794218128517904	0.2576316207271413	0.5413089868701223	0.17264124646414852	0.2761099781133656	0.13153460853172247	0.2235907147923207	0.25719180464029756	0.11054022467123174	0.042561658067141045	0.3234370044489394	0.10389474451865063	0.070274467538462	0.25227924416871367	0.07419188998613377	0.28406749418022564	0.0054645920569568115	0.9569078985642165	0.17698217438932873	0.03792965697233984	0.521296469651867	0.19643671626060893	0.04990662431897018	0.14357008073163888	0.21796255542012305	0.066909824040315	0.11380360281654218	0.02688211556111217	0.017254497552998377	0.0987013065235033	0.0691104130568154	0.06416844141073785	0.09999260610396007	0.2612578583476991	0.09531902116788384	1.54850188067443	0.2266827424193233	0.08558378603033706	1.7828126009073202	0.17885190465650205	0.07520498504341099	1.6627492100224894	0.11841846997282812	0.2491609620284992	1.5029873205494706	0.20685700517107217	0.48442550795305195	1.4955393869198734	0.28311932664823564	0.46086828783657274	1.6832280320764932	0.28090175537745166	0.38577365847769496	1.732783051600807	0.30913334914530516	0.41022289395070416	1.7389553359059529	0.3023013155734323	0.4590896539959254	1.7369003641557819	0.2925117094994563	-0.06548098556645789	1.483283044210494	0.20028772444607984	-0.28275869155217115	1.4380563710376046	0.29272689970255533	-0.28407701881522507	1.6213176936730225	0.26508575868104933	-0.22807553500005573	1.6881915766831226	0.27731083530746947	-0.2500048378412119	1.6982733509589818	0.287643059770777	-0.2943354916931702	1.6816525619225542	0.2929031732711771	
401	7.290909090909091	0.24955709658919872	0.9723151026818951	0.16720142572139904	0.25754362596085156	0.5415260551758463	0.172572405364346	0.2758621879587225	0.13076089093743368	0.2248370679069132	0.25722291207089987	0.11058376887040335	0.04254853490994729	0.3234776144990764	0.10393943485227038	0.07030584735520226	0.2524759850051702	0.07359466393348543	0.28444035101549653	0.005573154560794052	0.9568248010406861	0.17700259433046395	0.03792923515097545	0.5209055559856384	0.19639620044692196	0.049949565921902424	0.14325116517966563	0.21786749880634554	0.06652152752761832	0.11591834634113271	0.026604093922497192	0.017688624273784544	0.09953366128440086	0.06923866037177906	0.06414360652680531	0.0993657986825274	0.26107480909881764	0.09541864433212625	1.5486263607542536	0.22661861263866132	0.08581831954235336	1.782813381774634	0.17924838572281815	0.07482776893162715	1.6630449549308228	0.11827697428984182	0.2489352227161188	1.5030905782834039	0.20802039857495422	0.4848386350051491	1.4952227540977314	0.28302183380961293	0.46198508532118854	1.683391789762807	0.2784724851865157	0.38727233716074216	1.733306432353182	0.3090508086083036	0.4129368003660391	1.7406673520622522	0.2967572461557989	0.4614647995877167	1.737249099813178	0.2923404582188165	-0.06578976527234648	1.4837631643660423	0.2002846931829021	-0.28473777220005286	1.4391736708103928	0.28812850868046413	-0.28641219450500927	1.622740494174072	0.26109276462348685	-0.22906230173935227	1.688151787410182	0.2792085246871115	-0.25426135533668326	1.6981439031514012	0.2860586258099583	-0.2963410072159416	1.6820530346935758	0.28349990324792274	
402	7.309090909090909	0.24965964936748944	0.9724624289384847	0.16705221045810914	0.2574415330077423	0.5417942371750327	0.17249181919210288	0.2757410097281089	0.12995407338307102	0.22602283835342857	0.2573647241492289	0.11068044174418265	0.04263421173259925	0.32331145465432354	0.104433924031984	0.06987528573157005	0.2527557777461899	0.07291115686558902	0.2849872264081148	0.005636447728912923	0.9567106822017228	0.17728847029868888	0.03791186535707317	0.520583374341582	0.19634574104335617	0.04998001383777064	0.14300481834148787	0.2178002538571866	0.06623286271149818	0.11812221103075628	0.02605188864366208	0.017658157864583884	0.0998848954912922	0.07071476773575469	0.06412176012382038	0.09867902171065582	0.26093424218029254	0.0952557557226909	1.5485123225993327	0.22752501177420115	0.08582377407892164	1.7829535358893494	0.17947484609031922	0.0740976554562714	1.6633004044505548	0.11802216323598258	0.24853297627801368	1.5032602189908395	0.21006311542377454	0.48557580391481103	1.4947464372436574	0.2829055414254323	0.4632686327839296	1.6826404974356164	0.2762700208119875	0.38993936630256765	1.734299273440766	0.3044382773788532	0.41595873958736285	1.7426959255194248	0.2874058757326422	0.463762724138542	1.7376757649000574	0.2921215306438686	-0.0657122472883399	1.4842949670240202	0.2002902032856248	-0.28667782687505705	1.4403319954874425	0.281135684974067	-0.2891453292644299	1.6235732925229573	0.25601595806345145	-0.23130841992102905	1.6877167221442482	0.2803734259019558	-0.25882353021941107	1.6982701837142704	0.2804376030777881	-0.29873950269358635	1.6824138728548612	0.27380075395195547	
403	7.327272727272727	0.24972213909178234	0.9723912006539159	0.16734131132177685	0.25732446293726013	0.5422353258106538	0.17234465885250821	0.27571697985689425	0.1291893897059715	0.22713578985223987	0.2575063573457956	0.11083432177170863	0.04277506643665602	0.3228752691808605	0.10539807191318824	0.0688197272386068	0.25311850164208916	0.07217097160132104	0.2857155850635506	0.005631783820632844	0.9566241143333892	0.17783889989253704	0.03787560255863165	0.5204261456426639	0.1962962263652417	0.04999700378974386	0.14284368869569652	0.21776218722785554	0.06612304255021725	0.11954490181512298	0.02575216108855771	0.017093748681441052	0.09955555387871752	0.07318165130709192	0.06407989109119665	0.09804478898972765	0.26082275586579007	0.09479953159448473	1.5480689258187823	0.22924985093218223	0.08537072561859371	1.783242678031027	0.17917253995816954	0.07314239698534233	1.663347050608663	0.11767930046933497	0.2480350375799072	1.5035200634766654	0.2127048969935569	0.48654722271021633	1.4940676075908288	0.28271797570540846	0.46494386848489594	1.6809739039289666	0.27467764005091855	0.39393364257938435	1.7355692205647166	0.29416670781522736	0.41900586360336667	1.745131942676585	0.2749025580355079	0.4658910502143958	1.738556359591975	0.2918844155500963	-0.06521534604465885	1.484640585042538	0.20019346323520645	-0.28847148692562735	1.4412171843818495	0.2725705391079676	-0.291898443067924	1.6234677899994274	0.250518501275263	-0.23517994152087868	1.6872665167470682	0.2783231819010802	-0.2633115068382971	1.6991395421457365	0.26949962931325566	-0.30179695457337113	1.682953450490021	0.26463394966211923	
404	7.345454545454546	0.2496774562513177	0.9721857005007228	0.16782229165219575	0.257195402079555	0.5429010275781926	0.17206343635944638	0.27574613842396145	0.12861392818472886	0.22791438369791073	0.2574408237827463	0.11111008637263697	0.042884594979985965	0.3221292864692018	0.10680800171944085	0.06718125984141694	0.2535652401976592	0.07137218559385458	0.28663945961145043	0.005541530522568269	0.9566291547562098	0.17856087142953317	0.0378194377965646	0.5204417535400389	0.19624937181087027	0.050002850669832635	0.14275512360087853	0.21774663401047864	0.06609806090903626	0.11903765837180096	0.026568971784389852	0.016114478388744347	0.09862436235398034	0.07596857846621759	0.06401758899313073	0.09753897941295384	0.26072579712600213	0.09414693535333518	1.5473220339155278	0.2316634629215353	0.08439120721019511	1.7836113119492845	0.17808611643783204	0.07234033378876897	1.6631993084235155	0.11730083200552496	0.24749857975206802	1.5038983913683965	0.21556185191737298	0.4876227468906506	1.4934143065245071	0.28241253324049925	0.4670635556139491	1.6789286401016121	0.2741153713835628	0.3991919791437025	1.7373522857572568	0.2798972801879883	0.4219567289254644	1.7483477654433395	0.2616202800649666	0.4682756890818754	1.740743099682859	0.29171643465471553	-0.06443040492996085	1.484715696006939	0.20009511808543437	-0.2899665213200379	1.4413580546285498	0.2638850361674583	-0.29416838145601576	1.6224111741187521	0.24576676656594504	-0.24070684952403482	1.6875274454766607	0.27170522331567826	-0.2675780608528243	1.7014037654107959	0.25460707391984844	-0.30598958189300174	1.6840238580891693	0.256212143599513	
